<svg xmlns="http://www.w3.org/2000/svg" width="30" height="30" viewBox="0 0 30 30" fill="none">
  <path fill-rule="evenodd" clip-rule="evenodd" d="M14.7962 27.4984L15 27.5C14.724 27.5 14.4481 27.491 14.1728 27.4731C13.832 27.4508 13.4922 27.4146 13.1544 27.3647C12.7619 27.3065 12.3724 27.2297 11.9873 27.1345C11.6076 27.0406 11.2326 26.9287 10.8634 26.7994L10.8614 26.7986C10.2535 26.5854 9.66317 26.3252 9.09566 26.0205C8.69289 25.8042 8.3023 25.566 7.92566 25.3069C7.50212 25.0157 7.09688 24.6987 6.71225 24.3577C6.57786 24.2386 6.44603 24.1166 6.31686 23.9919C3.96344 21.7187 2.5 18.5303 2.5 15C2.5 8.09647 8.09647 2.5 15 2.5C16.6415 2.49999 18.267 2.82331 19.7835 3.45149C21.3001 4.07967 22.6781 5.00041 23.8388 6.16114C24.9996 7.32187 25.9203 8.69986 26.5485 10.2164C27.1767 11.733 27.5 13.3585 27.5 15C27.5 18.5304 26.0365 21.7189 23.683 23.992C23.6829 23.9922 23.6829 23.9924 23.683 23.9927C23.0909 24.5642 22.4442 25.0762 21.7521 25.5213L21.7424 25.5275C21.5855 25.6283 21.4263 25.7255 21.2649 25.8191L21.2478 25.829C20.9655 25.9922 20.6769 26.1443 20.3828 26.2849C20.2676 26.3398 20.1517 26.393 20.035 26.4445C19.9133 26.498 19.7908 26.5497 19.6675 26.5995C19.548 26.6475 19.4277 26.6938 19.3069 26.7382C19.1846 26.783 19.0618 26.8259 18.9383 26.867C18.8169 26.9071 18.6949 26.9455 18.5724 26.982C18.4426 27.0206 18.3121 27.0572 18.1812 27.0916C18.0537 27.125 17.9257 27.1564 17.7972 27.1858C17.6691 27.2151 17.5405 27.2423 17.4115 27.2676C16.8856 27.3704 16.3537 27.4392 15.8189 27.4736C15.686 27.4822 15.553 27.4887 15.4199 27.4931L15.4173 27.4932C15.2104 27.5 15.0033 27.5017 14.7962 27.4984ZM16.25 20H13.75C11.7588 20 10.0173 21.1717 9.21678 22.8849L9.12625 23.0925L9.20459 23.1504C10.6294 24.1653 12.3316 24.816 14.1753 24.9665C14.2304 24.971 14.2855 24.975 14.3408 24.9786L14.183 24.9671C14.2367 24.9714 14.2905 24.9754 14.3444 24.9788L14.3408 24.9786C14.3942 24.9821 14.4478 24.9852 14.5013 24.9878L14.3444 24.9788C14.4001 24.9825 14.4559 24.9856 14.5119 24.9883L14.5013 24.9878C14.5415 24.9898 14.5817 24.9915 14.6219 24.993L15 25L15.1567 24.9988C15.2143 24.998 15.272 24.9966 15.3296 24.9947L15.1714 24.9985C15.2247 24.9977 15.2779 24.9964 15.331 24.9946L15.3296 24.9947C15.3831 24.9929 15.4366 24.9908 15.49 24.9882L15.331 24.9946C15.3861 24.9928 15.4412 24.9906 15.4962 24.9879L15.49 24.9882C15.5456 24.9855 15.6011 24.9824 15.6564 24.9788L15.4962 24.9879C15.5504 24.9853 15.6045 24.9822 15.6585 24.9787L15.6565 24.9788C15.7106 24.9753 15.7646 24.9713 15.8185 24.967L15.6585 24.9787C15.7135 24.9751 15.7686 24.9711 15.8235 24.9666L15.8185 24.967C15.8709 24.9627 15.9231 24.9581 15.9752 24.9531L15.8235 24.9666C15.8782 24.9621 15.9328 24.9572 15.9872 24.9519L15.9752 24.9531C17.7574 24.7806 19.4027 24.1403 20.7869 23.1565L20.8725 23.0925L20.7833 22.8852C20.0178 21.2464 18.3911 20.1029 16.5083 20.0066L16.25 20ZM15 5.00002C9.47717 5.00002 5.00002 9.47717 5.00002 15C5.00002 17.385 5.83492 19.575 7.2284 21.2935C8.5191 19.0276 10.9561 17.5 13.75 17.5H16.25C19.0439 17.5 21.481 19.0277 22.7715 21.2934C24.165 19.575 25 17.385 25 15C25 9.47717 20.5229 5.00002 15 5.00002ZM15 6.25C17.7614 6.25 20 8.48857 20 11.25C20 13.9277 17.895 16.1138 15.2495 16.2439L15 16.25C12.2386 16.25 10 14.0114 10 11.25C10 8.57225 12.105 6.38611 14.7504 6.25609L15 6.25ZM15 8.75002C13.6193 8.75002 12.5 9.86928 12.5 11.25C12.5 12.6307 13.6193 13.75 15 13.75C16.3807 13.75 17.5 12.6307 17.5 11.25C17.5 9.86928 16.3807 8.75002 15 8.75002Z" fill="#2D336B"/>
</svg>