<svg xmlns="http://www.w3.org/2000/svg" width="13" height="14" viewBox="0 0 13 14" fill="none">
  <path d="M0.596524 6.99529C0.420595 6.81914 0.321777 6.58036 0.321777 6.33141C0.321777 6.08245 0.420595 5.84368 0.596524 5.66753L5.92009 0.34396C6.09624 0.168031 6.33502 0.0692139 6.58397 0.0692139C6.83293 0.0692139 7.0717 0.168031 7.24785 0.34396L12.5714 5.66753C12.7376 5.84558 12.8281 6.08119 12.8239 6.32469C12.8197 6.56819 12.7211 6.80053 12.5489 6.97274C12.3767 7.14494 12.1443 7.24354 11.9008 7.24774C11.6573 7.25195 11.4217 7.16144 11.2437 6.99529L7.52342 3.27505V12.5944C7.52342 12.8436 7.42445 13.0825 7.24826 13.2587C7.07208 13.4349 6.83313 13.5339 6.58397 13.5339C6.33481 13.5339 6.09586 13.4349 5.91968 13.2587C5.7435 13.0825 5.64452 12.8436 5.64452 12.5944V3.27505L1.92428 6.99529C1.74814 7.17122 1.50936 7.27003 1.2604 7.27003C1.01145 7.27003 0.772672 7.17122 0.596524 6.99529Z" fill="#2D336B"/>
</svg>